name Walk8.mot
datacolumns 19
datarows 17
range 4.25000000 4.33000000
endheader

                time	   L_ground_force_vx	   L_ground_force_vy	   L_ground_force_vz	   L_ground_force_px	   L_ground_force_py	   L_ground_force_pz	   R_ground_force_vx	   R_ground_force_vy	   R_ground_force_vz	   R_ground_force_px	   R_ground_force_py	   R_ground_force_pz	   L_ground_torque_x	   L_ground_torque_y	   L_ground_torque_z	   R_ground_torque_x	   R_ground_torque_y	   R_ground_torque_z	
          4.25000000	          0.00000000	          0.00000000	         -0.00000000	         -0.00000000	          0.00000000	         -0.00000000	          7.00511752	         21.24146998	          0.44924638	          0.16190065	          0.00000000	          0.02309762	          0.00000000	          0.00000000	          0.00000000	          0.00000000	         -1.70976337	          0.00000000	
          4.25500000	          0.00000000	          0.00000000	         -0.00000000	         -0.00000000	          0.00000000	         -0.00000000	          4.30676559	         10.41935408	          0.55862771	          0.12215375	          0.00000000	          0.01687145	          0.00000000	          0.00000000	          0.00000000	          0.00000000	         -1.11962222	          0.00000000	
          4.26000000	          0.00000000	          0.00000000	         -0.00000000	         -0.00000000	          0.00000000	         -0.00000000	          2.23575169	          2.65529587	          0.58459115	          0.08700395	          0.00000000	          0.01154440	          0.00000000	          0.00000000	          0.00000000	          0.00000000	         -0.65262755	          0.00000000	
          4.26500000	          0.00000000	          0.00000000	         -0.00000000	         -0.00000000	          0.00000000	         -0.00000000	          0.73082967	         -2.53364605	          0.55500690	          0.05758210	          0.00000000	          0.00721524	          0.00000000	          0.00000000	          0.00000000	          0.00000000	         -0.30153796	          0.00000000	
          4.27000000	          0.00000000	          0.00000000	         -0.00000000	         -0.00000000	          0.00000000	         -0.00000000	         -0.29204746	         -5.66083321	          0.49214076	          0.03416039	          0.00000000	          0.00386840	          0.00000000	          0.00000000	          0.00000000	          0.00000000	         -0.05254301	          0.00000000	
          4.27500000	          0.00000000	         -0.00000000	         -0.00000000	         -0.00000000	          0.00000000	         -0.00000000	         -0.92490133	         -7.21853430	          0.41290354	          0.01643883	          0.00000000	          0.00141619	          0.00000000	          0.00000000	          0.00000000	          0.00000000	          0.11128815	          0.00000000	
          4.28000000	          0.00000000	         -0.00000000	         -0.00000000	         -0.00000000	          0.00000000	         -0.00000000	         -1.25758974	         -7.64655906	          0.32943457	          0.00377422	          0.00000000	         -0.00026837	          0.00000000	          0.00000000	          0.00000000	          0.00000000	          0.20754835	          0.00000000	
          4.28500000	         -0.00000000	         -0.00000000	         -0.00000000	         -0.00000000	          0.00000000	         -0.00000000	         -1.37147623	         -7.31629267	          0.24985325	         -0.00464584	          0.00000000	         -0.00132742	          0.00000000	         -0.00000000	          0.00000000	          0.00000000	          0.25286359	          0.00000000	
          4.29000000	         -0.00000000	         -0.00000000	         -0.00000000	         -0.00000000	          0.00000000	         -0.00000000	         -1.33604225	         -6.52586895	          0.17905891	         -0.00967803	          0.00000000	         -0.00190158	          0.00000000	         -0.00000000	          0.00000000	          0.00000000	          0.26192492	          0.00000000	
          4.29500000	         -0.00000000	         -0.00000000	          0.00000000	          0.00000000	          0.00000000	          0.00000000	         -1.20765433	         -5.50286820	          0.11949848	         -0.01213966	          0.00000000	         -0.00211939	          0.00000000	         -0.00000000	          0.00000000	          0.00000000	          0.24702068	          0.00000000	
          4.30000000	         -0.00000000	         -0.00000000	          0.00000000	          0.00000000	          0.00000000	          0.00000000	         -1.02981079	         -4.41162730	          0.07185265	         -0.01275816	          0.00000000	         -0.00209145	          0.00000000	         -0.00000000	          0.00000000	          0.00000000	          0.21792653	          0.00000000	
          4.30500000	         -0.00000000	         -0.00000000	          0.00000000	          0.00000000	          0.00000000	          0.00000000	         -0.83431759	         -3.36292928	          0.03561562	         -0.01214578	          0.00000000	         -0.00190812	          0.00000000	         -0.00000000	          0.00000000	          0.00000000	          0.18203367	          0.00000000	
          4.31000000	         -0.00000000	         -0.00000000	          0.00000000	          0.00000000	          0.00000000	          0.00000000	         -0.64296716	         -2.42445250	          0.00956075	         -0.01079248	          0.00000000	         -0.00163965	          0.00000000	         -0.00000000	          0.00000000	          0.00000000	          0.14461960	          0.00000000	
          4.31500000	         -0.00000000	         -0.00000000	          0.00000000	          0.00000000	          0.00000000	          0.00000000	         -0.46940690	         -1.63088065	         -0.00790387	         -0.00907108	          0.00000000	         -0.00133781	          0.00000000	         -0.00000000	          0.00000000	          0.00000000	          0.10918903	          0.00000000	
          4.32000000	         -0.00000000	         -0.00000000	          0.00000000	          0.00000000	          0.00000000	          0.00000000	         -0.32098166	         -0.99299545	         -0.01847849	         -0.00724977	          0.00000000	         -0.00103844	          0.00000000	         -0.00000000	          0.00000000	          0.00000000	          0.07783255	          0.00000000	
          4.32500000	         -0.00000000	         -0.00000000	          0.00000000	          0.00000000	          0.00000000	          0.00000000	         -0.20041366	         -0.50539810	         -0.02379837	         -0.00550843	          0.00000000	         -0.00076433	          0.00000000	         -0.00000000	          0.00000000	          0.00000000	          0.05156864	          0.00000000	
          4.33000000	         -0.00000000	         -0.00000000	          0.00000000	          0.00000000	          0.00000000	          0.00000000	         -0.10724544	         -0.15274048	         -0.02532774	         -0.00395609	          0.00000000	         -0.00052810	          0.00000000	         -0.00000000	          0.00000000	          0.00000000	          0.03064765	          0.00000000	
